<svg xmlns="http://www.w3.org/2000/svg" viewBox="0 0 1040.69 361.79"><defs><style>.cls-1,.cls-2{fill:none;}.cls-1{stroke:#e08080;}.cls-2{stroke:#3c4e3d;}</style></defs><g id="Layer_2" data-name="Layer 2"><g id="Layer_1-2" data-name="Layer 1"><path class="cls-1" d="M172.78,159.38h-31.4V2.47h31.4V65.28h62.69V2.47h31.41V159.38H235.47V96.68H172.78Z"/><path class="cls-1" d="M403.54,159.38H296V2.47H403.54v31.4H327.39V65.28h51.53v31.4H327.39V128h76.15Z"/><path class="cls-1" d="M535.39,159.38H425.53V2.47h31.41V128h78.45Z"/><path class="cls-1" d="M661.55,159.38H551.69V2.47H583.1V128h78.45Z"/><path class="cls-1" d="M826.22,81.58a79.35,79.35,0,0,1-2.9,21.5,82.82,82.82,0,0,1-8.15,19.37,80.45,80.45,0,0,1-12.69,16.46,82.13,82.13,0,0,1-16.42,12.75,81,81,0,0,1-62.42,8.21,81.44,81.44,0,0,1-35.83-21,81.29,81.29,0,0,1-21-35.83,81.64,81.64,0,0,1,0-43.06,80.28,80.28,0,0,1,8.21-19.36,83.07,83.07,0,0,1,12.75-16.42,80.24,80.24,0,0,1,16.47-12.69A82.57,82.57,0,0,1,723.64,3.4a81.37,81.37,0,0,1,43.06,0A81,81,0,0,1,823.32,60,80,80,0,0,1,826.22,81.58Zm-31.18,0a48.44,48.44,0,0,0-3.94-19.42,49.73,49.73,0,0,0-26.54-26.54,50,50,0,0,0-38.89,0A51.35,51.35,0,0,0,709.8,46.29a50,50,0,0,0-10.72,15.87,48.44,48.44,0,0,0-3.94,19.42,47.68,47.68,0,0,0,3.94,19.31,50.52,50.52,0,0,0,26.59,26.53,50,50,0,0,0,38.89,0,49.79,49.79,0,0,0,15.87-10.72,51.38,51.38,0,0,0,10.67-15.81A47.68,47.68,0,0,0,795,81.58Z"/><path class="cls-2" d="M157.3,313a46.22,46.22,0,0,1-3.67,18.32,46.87,46.87,0,0,1-25.06,25.06,46.22,46.22,0,0,1-18.32,3.67A46.84,46.84,0,0,1,93.45,357a45.1,45.1,0,0,1-14.5-9,44.79,44.79,0,0,1-14.55,9,47.31,47.31,0,0,1-16.85,3.07,46.3,46.3,0,0,1-18.33-3.67,46.81,46.81,0,0,1-25-25.06A46,46,0,0,1,.5,313V201H31.9V313a15.8,15.8,0,0,0,1.21,6.18,15.32,15.32,0,0,0,8.31,8.37,15.76,15.76,0,0,0,17.24-3.34,15.34,15.34,0,0,0,3.33-5A16,16,0,0,0,63.2,313V201H94.6V313a16,16,0,0,0,1.2,6.18,15.38,15.38,0,0,0,8.32,8.37,16.23,16.23,0,0,0,12.25,0,15.31,15.31,0,0,0,5-3.34,16.15,16.15,0,0,0,3.39-5A15.32,15.32,0,0,0,126,313V201h31.3Z"/><path class="cls-2" d="M292.86,357.9H185.31V201H292.86V232.4H216.71v31.4h51.54v31.4H216.71v31.3h76.15Z"/><path class="cls-2" d="M424.71,357.9H314.86V201h31.4V326.5h78.45Z"/><path class="cls-2" d="M560.94,341.81a80.92,80.92,0,0,1-74.13,16.58A81.74,81.74,0,0,1,430,301.6a81.33,81.33,0,0,1,0-43.05,81.31,81.31,0,0,1,21-35.89,81.4,81.4,0,0,1,35.84-21,79.35,79.35,0,0,1,21.5-2.9,81.24,81.24,0,0,1,28.12,5,78,78,0,0,1,24.51,14.5l-16.63,27.36A47.12,47.12,0,0,0,528,234.2a49.9,49.9,0,0,0-19.69-4,48.38,48.38,0,0,0-19.48,3.94A51.08,51.08,0,0,0,473,244.82a49.83,49.83,0,0,0-10.73,15.86,48.65,48.65,0,0,0-3.94,19.42,47.89,47.89,0,0,0,3.94,19.32A50.61,50.61,0,0,0,488.83,326a48.55,48.55,0,0,0,19.48,3.94,49.73,49.73,0,0,0,19.69-4,47,47,0,0,0,16.31-11.43Z"/><path class="cls-2" d="M728.35,280.1a79.35,79.35,0,0,1-2.9,21.5A83.07,83.07,0,0,1,717.3,321a80.29,80.29,0,0,1-12.7,16.47,82.3,82.3,0,0,1-16.41,12.74,81,81,0,0,1-62.42,8.21A81.74,81.74,0,0,1,569,301.6a80.66,80.66,0,0,1,8.21-62.42,82.3,82.3,0,0,1,12.74-16.41,80.24,80.24,0,0,1,16.47-12.69,82.85,82.85,0,0,1,19.37-8.16,81.37,81.37,0,0,1,43.06,0,81,81,0,0,1,56.62,56.63A79.93,79.93,0,0,1,728.35,280.1Zm-31.19,0a48.48,48.48,0,0,0-3.94-19.42,49.69,49.69,0,0,0-26.53-26.53,50,50,0,0,0-38.9,0,51.08,51.08,0,0,0-15.86,10.67,49.64,49.64,0,0,0-10.72,15.86,48.48,48.48,0,0,0-3.94,19.42,47.72,47.72,0,0,0,3.94,19.32A50.55,50.55,0,0,0,627.79,326a50,50,0,0,0,38.9,0,50.12,50.12,0,0,0,15.87-10.72,51.59,51.59,0,0,0,10.66-15.81A47.72,47.72,0,0,0,697.16,280.1Z"/><path class="cls-2" d="M904.62,357.9H873.33v-112a15,15,0,0,0-1.26-6.12,16.28,16.28,0,0,0-3.39-5,15.85,15.85,0,0,0-5-3.34,16.26,16.26,0,0,0-12.26,0,15.85,15.85,0,0,0-5,3.34,15.61,15.61,0,0,0-4.54,11.1v112h-31.4v-112a15.65,15.65,0,1,0-31.29,0v112H747.82v-112a46,46,0,0,1,3.67-18.32,46.87,46.87,0,0,1,25.06-25.06A46.69,46.69,0,0,1,826.28,211a46,46,0,0,1,31.29-12.15,46.3,46.3,0,0,1,18.33,3.67A46.87,46.87,0,0,1,901,227.53a46.21,46.21,0,0,1,3.66,18.32Z"/><path class="cls-2" d="M1040.19,357.9H932.63V201h107.56V232.4H964v31.4h51.54v31.4H964v31.3h76.16Z"/></g></g></svg>