<?xml version="1.0" encoding="utf-8"?>
<!-- Generator: Adobe Illustrator 25.0.1, SVG Export Plug-In . SVG Version: 6.00 Build 0)  -->
<svg version="1.1" id="Layer_1" xmlns="http://www.w3.org/2000/svg" xmlns:xlink="http://www.w3.org/1999/xlink" x="0px" y="0px"
	 viewBox="0 0 1920 1080" style="enable-background:new 0 0 1920 1080;" xml:space="preserve">
<style type="text/css">
	.st0{fill:none;stroke:#000000;stroke-miterlimit:10;}
</style>
<g>
	<line class="st0" x1="171.2" y1="0" x2="171.2" y2="1080"/>
</g>
<g>
	<line class="st0" x1="200.4" y1="0" x2="200.4" y2="1080"/>
</g>
<g>
	<line class="st0" x1="229.5" y1="0" x2="229.5" y2="1080"/>
</g>
<g>
	<line class="st0" x1="258.6" y1="0" x2="258.6" y2="1080"/>
</g>
<g>
	<line class="st0" x1="287.7" y1="0" x2="287.7" y2="1080"/>
</g>
<g>
	<line class="st0" x1="316.9" y1="0" x2="316.9" y2="1080"/>
</g>
<g>
	<line class="st0" x1="346" y1="0" x2="346" y2="1080"/>
</g>
<g>
	<line class="st0" x1="375.1" y1="0" x2="375.1" y2="1080"/>
</g>
<g>
	<line class="st0" x1="404.2" y1="0" x2="404.2" y2="1080"/>
</g>
<g>
	<line class="st0" x1="433.4" y1="0" x2="433.4" y2="1080"/>
</g>
<g>
	<line class="st0" x1="1451.1" y1="0" x2="1451.1" y2="1080"/>
</g>
<g>
	<line class="st0" x1="1480.2" y1="0" x2="1480.2" y2="1080"/>
</g>
<g>
	<line class="st0" x1="1509.3" y1="0" x2="1509.3" y2="1080"/>
</g>
<g>
	<line class="st0" x1="1538.4" y1="0" x2="1538.4" y2="1080"/>
</g>
<g>
	<line class="st0" x1="1567.6" y1="0" x2="1567.6" y2="1080"/>
</g>
<g>
	<line class="st0" x1="1596.7" y1="0" x2="1596.7" y2="1080"/>
</g>
<g>
	<line class="st0" x1="1625.8" y1="0" x2="1625.8" y2="1080"/>
</g>
<g>
	<line class="st0" x1="1654.9" y1="0" x2="1654.9" y2="1080"/>
</g>
<g>
	<line class="st0" x1="1684.1" y1="0" x2="1684.1" y2="1080"/>
</g>
<g>
	<line class="st0" x1="1713.2" y1="0" x2="1713.2" y2="1080"/>
</g>
</svg>
