<svg xmlns="http://www.w3.org/2000/svg" viewBox="0 0 207.61 100.32"><defs><style>.cls-1{font-size:60px;font-family:Cafe24Shiningstar, Cafe24 Shiningstar;}.cls-1,.cls-2{fill:#fff;}</style></defs><g id="Layer_2" data-name="Layer 2"><g id="Layer_1-2" data-name="Layer 1"><text class="cls-1" transform="matrix(0.98, 0.22, -0.22, 0.98, 16.26, 49.78)">Click Here!</text><path class="cls-2" d="M207.55,91c.12-.07.07-.27-.23-.27l-.26.31Z"/><path class="cls-2" d="M205.56,90.14c-.37.11-.82.34-.62.67.39-.27.46-.13.89-.46.31,0,.52.17.45.28.12-.07.47.13.65-.06a1.52,1.52,0,0,0-1.41-.22C205.41,90.27,205.53,90.19,205.56,90.14Z"/><path class="cls-2" d="M176.23,84.36l.17.09Z"/><path class="cls-2" d="M158.36,79.29c.14,0,.2,0,.22,0C158.45,79.26,158.34,79.25,158.36,79.29Z"/><path class="cls-2" d="M155.38,78.14l.17.07C155.49,78.17,155.42,78.13,155.38,78.14Z"/><path class="cls-2" d="M176.23,84.36l-.45-.23C175.71,84.23,176,84.28,176.23,84.36Z"/><path class="cls-2" d="M201.36,90.44a.78.78,0,0,0,.28,0h-.26Z"/><path class="cls-2" d="M184.21,86.05l.15,0,.15-.11Z"/><path class="cls-2" d="M190.35,87.19c-.13,0-.23.23-.31.34a.47.47,0,0,1,.34-.14A.31.31,0,0,0,190.35,87.19Z"/><path class="cls-2" d="M200.11,89.13l.18,0Z"/><path class="cls-2" d="M179.87,85a.21.21,0,0,0,0-.12A.14.14,0,0,0,179.87,85Z"/><path class="cls-2" d="M7.12,53.84a.09.09,0,0,0,0-.05S7.08,53.83,7.12,53.84Z"/><path class="cls-2" d="M.11,51.43H.22a.75.75,0,0,0,0-.16Z"/><path class="cls-2" d="M149.82,76.4h0C150,76.42,149.91,76.4,149.82,76.4Z"/><path class="cls-2" d="M97.6,65.62c.55.35-1,.14-.18.58C97.35,66.07,98.31,65.92,97.6,65.62Z"/><path class="cls-2" d="M201.2,90.38l-.25,0Z"/><path class="cls-2" d="M97.42,66.2h0l.08,0Z"/><path class="cls-2" d="M136.74,73.54a.44.44,0,0,0,.1.15S136.82,73.62,136.74,73.54Z"/><path class="cls-2" d="M146.36,76.17l-.23-.09A1.18,1.18,0,0,0,146.36,76.17Z"/><path class="cls-2" d="M131.6,72.79a.66.66,0,0,0-.35-.09l.05,0A.4.4,0,0,1,131.6,72.79Z"/><path class="cls-2" d="M126.33,71.67l.09.08.17,0Z"/><path class="cls-2" d="M23.33,56a.73.73,0,0,1-.21-.28C23.17,56,22.38,55.92,23.33,56Z"/><path class="cls-2" d="M201.38,90.28a.18.18,0,0,1-.18.1h.18A.08.08,0,0,0,201.38,90.28Z"/><path class="cls-2" d="M130.91,74.91l-.82-.22A6.88,6.88,0,0,0,130.91,74.91Z"/><path class="cls-2" d="M61.49,61.78h-.2A.34.34,0,0,0,61.49,61.78Z"/><path class="cls-2" d="M127.6,74.21a1.36,1.36,0,0,0-.43-.29.22.22,0,0,0-.11,0Z"/><path class="cls-2" d="M23.12,55.75h0Z"/><path class="cls-2" d="M17.45,55.6c.8.13.43-.3.63-.48,1,0,.41.33.71.56a12,12,0,0,1,1.57-.2c0,.07.11.1,0,.16.68-.19,1.89.26,2.68,0a.26.26,0,0,1,.09.1.65.65,0,0,1,0-.52c.36.05.7-.13.8.13-.22,0-.25,0-.37.11l.4,0c.29.4-.54,0-.57.3a9,9,0,0,1,2.21,0c.06.35-1.34-.08-.63.33l-.86-.26c.59.63-.53-.11,0,.54,1.13.27,1.31,0,2.44.29.29-.15,0-.29.25-.44,1.68-.1,1.16,1,2.42.76.35-.18.53-.59,1.35-.23l-.35.33c1.11.21.72-.45,1.85,0-.23.12-.89,0-.73.07.71.41.56-.14,1.15-.06l.07.36c1.19.12,2.54.07,3.86.21-.09.08-.33.16,0,.3a24,24,0,0,1,5.1,1l.66-.2c.14,0,.24.17.08.2.6.21.06-.18.38-.25s.44.24.2.3a11.31,11.31,0,0,1,4.32.42l-.24.06c.89.25,1.11-.44,1.91,0l-.17,0c1.94.43,4.14.5,5.56,1.17.35-.37,1.91.49,2.13-.08a9.88,9.88,0,0,0,2.27,1c.42.09.69-.27,1.22-.25l0,.31.75-.21.32.43h.5c-.19,0-.39-.21-.35-.29a2.74,2.74,0,0,1,1.82.67l1.84,0c-.06.11-.37.11-.62.15,1-.16.12.35,1.05.2-.11-.09.09-.17.12-.23a5.88,5.88,0,0,0,2.16.46l-.18.19c1.33.27,2.83.36,4.32.61-.52-.18-.33-.53.11-.49l.12.35c.32-.15-.44-.2.19-.34.55.13.31.42,0,.48h.7c0,.1-.14.12-.2.24.31-.15,1.11.51,1.57.23l0,.11c1.49.24,2.19.25,3.41.44.07-.27.53-.13.93-.29a23.54,23.54,0,0,0,2.92.79c.78,0,.26-.2.63-.3,0,.26,1.09.42.5.51a30.15,30.15,0,0,0,3.33.31c-.15-.14-.35-.22-.23-.28.31,0,.66.22.59.34h-.08c1.9,0,4.1,1.48,5.66,1.22h1.47c.69.16-.45.11,0,.36,1.71-.13,2.57.53,4,.5.9.94,3.7.63,5,1.37l0-.19c.39-.11.42.18.67.27,0-.15-.36-.23-.12-.29a82.17,82.17,0,0,1,9.4,2.25c1.14.27.83-.77,2.2-.07l-.48.24c2.39.09,4.73,1,7.07,1.11-.15,0-.18.15-.4.1.43.33,1.77.37,1.82.18.35.1,0,.19.24.34.45.24,1.27,0,1.47.24,0,0-.15,0-.24,0,.34,0,1.45.34,1.21,0,.82.31,1.65.22,2.29.53.51-.21,1.42.45,1.66,0-.16.43,1.41.68,2,.59-.21.09.44.23.19.37.61.13,1.19.18,1.13-.07,1,.78,2.36.08,2.84.9,1.87.17,3.59.38,5.25.65-.16.42-1.82-.36-1.85.11a17.79,17.79,0,0,1,4.08.47c.38.15-.27.13-.42.18,1.58.18,3,.74,4.4.83,0,0-.17,0-.32,0,.28,0,.62.21.64,0h-.28c-.37-.4,1.22-.35,1.3-.5-.59.47,1.33.47.42,1,.19,0,.44,0,.43-.18.25.1.32.2,0,.29,1,.12.71-.18,1.58,0,0,.09-.21.09-.33.18a3,3,0,0,1,1.71.11c-.06,0,0,.14-.22.09,1.28.28,2.3,0,3.65.56-.52.31.44.26.42.64l.77.09-.25-.26a10.49,10.49,0,0,1,1.83.33l-.52,0,1.24.25-.66-.32c.72,0,0-.47.9-.15-.19,0,.66.17.94.48h0a2.06,2.06,0,0,1,1.18.16c.09.15-.21.37-.15.47.4-.22,1.56.32,2.05.11a.25.25,0,0,0-.18.28l.33-.17c.29.16.32.2.23.34.9.3-.17-.53.86,0-.09,0-.06,0-.24,0,1.05.4,2.13.42,3.1.82.19.44-.9-.15-.64.24,1.45.34,3.09.4,4.46.87l-.25-.11c.34-.45,1,.55,1.74.5-.19,0-.31.22-.25.18a19.59,19.59,0,0,0,3.48.65l-.21.08a19.89,19.89,0,0,0,2.06.69c.21-.08.56,0,.4-.22,1.69,1.24,3.69.51,5.23,1.51-.2,0-.51,0-.35.05l1.47.2c-.07-.25-.16-.18-.42-.42a1.87,1.87,0,0,1,1,0c-.68,0-.07.37.18.55,0-.08.08-.14.07-.21.67.55.22-.43,1.19,0l-.07.11a4.69,4.69,0,0,1,1.18,0c.13.3-.43,0-.5.25.59.11,1.25-.28,1.73.08-.26,0-.62,0-.88,0a1.9,1.9,0,0,0,1,.47h0l1,.32-.23-.13c.85-.55,1.51.14,2.58-.15-1,.27-.2.22-.33.51.24.12.61.28.49.34.51-.16.75.32,1.47.07,0,.11.5.09.36.32.62,0-.12-.19-.05-.3,1-.19,2.15.72,3.57.46,1.19,0,1.45-.33,2.55-.35.34.2-.35.31-.35.31a3.39,3.39,0,0,0,1.59.21c-.12.07,0,.16.14.29.45,0,.34-.31.91-.1a1.4,1.4,0,0,1-.49.34c.54,0,1.08-.14,1.63-.17.13.19-.36.22-.56.31.62,0,1.6,0,1.82-.22l-.38-.14c.23,0,.09.25-.08.28-.55.14-.75-.18-.76-.28l.39,0c-.33-.61-1.57-.09-2.34-.23l.37-.37-.84.24c-.15-.13-.24-.37.15-.39-.53-.27-.51.09-1-.2-.05,0,0-.06,0-.07l-.56.05c.12-.07-.06-.3.27-.2-.94-.36-1.62.11-1.94-.26H198c-1.37,0-.17.29-1.24.49l-.57-.84-.18.28c-.14,0-.41-.09-.34-.2-.55.13.07.14-.26.29-.64-.37-1.88-.14-2-.65-.27.19.62.28-.12.32-.13-.55-.84,0-1.42-.38.23-.23.79,0,.22-.34-.45.39-1.18-.29-1.71-.29-.08.36-1.14,0-2-.09a21,21,0,0,0-2.35-.79l0-.06c-.23.33-1,.09-1.65,0,.07-.21.19-.27.54-.3l-.56-.11a1.16,1.16,0,0,1-.72.06l.2-.23a10.33,10.33,0,0,1-2.5-.43c-.11.24.6.88-.45.8,0-.14,0-.38.29-.37a1.07,1.07,0,0,1-.5-.07l.46-.12c-.41-.21-.27.13-.62,0,0-.19-.22-.2-.14-.34s.29.15.44.11a2.3,2.3,0,0,1-.95-.54c0,.11-.07.25-.36.21-.75-.17-.2-.3-.6-.5-.22.09-.66-.18-.74.11-.22-.06-.22-.21-.29-.31-.41,0-1.8-.43-1.45,0l.1.05h-.07c-1.34-.06-2.57-.88-3.85-1.1l0-.09a14.41,14.41,0,0,0-2.26-.35c-.22-.06-.47-.32-.34-.4a3.13,3.13,0,0,1-1.46-.39c.61,0-.16-.2.62,0a3.06,3.06,0,0,0-1.71-.45c.34-.16-.47-.46-.84-.48l.47.31a8,8,0,0,1-1.1-.3l.28-.27c-1.41-.81-2.91-.09-3.89-1-.46.12.78.38.35.55a9.57,9.57,0,0,1-1.51-1c-.91-.43-1,.23-2-.15.1.14.14.48-.64.4-.69-.23-.73-.71-.27-.69.17,0,.25.1.23.13.24,0,.55,0,.3-.15l-.12.09c-.32-.2-1.29-.44-1-.57-.56,0-.28.13.1.29-.85-.4-1.4-.37-2.3-.72.13.1.23.27.09.24-1.33-.49-.66.06-1.59-.12-.48-.3.29-.37-.67-.45-.54-.26,0-.34.2-.37a5.09,5.09,0,0,1-2-.7H152a3,3,0,0,1-.72-.12l.2.3c-.25-.11-.47-.16-.44-.26-.31.09.11.44-.48.51-.32-.21-1.09-.13-1.14-.46,1.08.36,0-.34.9-.17a2.09,2.09,0,0,1-.66-.16s.05-.06.13-.06c-1-.52-.57.23-1.66,0,.18-.14-.17-.39-.36-.39.44.11.14.34-.29.37-.67-.3-.79-.08-1.15-.18l.4.16c-.18.14-.52,0-1,0,0-.15.46,0,.3-.09-.61.17-1.14-.6-1.95-.58-.32-.2,0-.33-.24-.48-.9,0-.86-.46-1.79-.48.2.29.26.25-.42.33l1.5.18-1,.11c.44.11,1,.08,1.22.18-.49.08-.43,0-.27.28-.52-.49-1.24-.08-1.88-.48l.15-.57c-1-.5-1.93-.13-3.26-.58l.41.2c-.23.19-.85-.16-1.31-.16.09-.19-.17-.32-.34-.48,0,.15-1-.24-1.2.12l-.55-.39c-1.08-.35-1.38.26-2.43,0,.37-.14-.08-.38.66-.37-.35-.08-.66-.19-.7-.06-.18-.16-1,0-1.32-.21-.17.05-.26.24-.66.14,0,0,0-.09,0-.09s-.65,0-.35.28c-1-.83-3.06-.6-3.9-1.32-.79-.1-1.73-.24-2.44-.38.06,0,0-.09.15,0-.93-.39-.71.42-1.77,0-.49-.43.62,0,.3-.24,0-.67-1.35-.19-2-.71h.19c-.52-.33-1.44,0-2.35-.27,0,0,0,0,0-.1a9.3,9.3,0,0,1-2.83,0c.33-.19.43,0,.31-.34-.41,0,0,.43-.78.34-.23-.19-.78-.42-.8-.71l.75.14c-.31-.43-1-.19-1.36-.33l.08-.14c-1.16-.19-1.26.2-2.49-.07l.1.14c-.75.25-.52-.33-1.26-.17l-.13-.43a22.53,22.53,0,0,1-2.46,0,9.27,9.27,0,0,1,2.1-.22,4.72,4.72,0,0,0-1.79-.12,1.1,1.1,0,0,1,.6,0,4.36,4.36,0,0,1-2.23,0c.3-.72-2.27-.64-2.81-1.34-1.62,0-3.09-.7-4.92-1,.54.7-.54-.09-.54.53-.43,0-.59-.08-.62-.12l-1.23-.6c-.27-.23.43-.06.42-.2-.92-.22-.34-.33-.93-.6.08.24-.38.25-.9.07l.7.41c-1.36.08-1-.71-2.41-.63l.45-.11c-.69,0-2.49-.45-3.23-.08-.11-.1-.24-.29.06-.28-1.6-.36-3.68-.12-4.88-.64l.15-.13c-.31,0-.57.18-.92,0,0-.06.15-.12,0-.16a2.72,2.72,0,0,1-1.23,0l.37-.11c-1.54-.46-2.49,0-3.82-.13.07-.43-1.14-.79-1.75-1l0-.06a31.6,31.6,0,0,0-4.9-.28c-1-.64-3.54-.78-5.19-1.33.25.12-.1.33-.41.33-.38-.16-1.14.12-1-.27l.14,0c-.23-.44-1.07-.47-1.7-.58l-.19.5c-1.55-1-4.43-.41-5.23-1.24-.42.07-.92,0-1.34,0l.06-.27a21.5,21.5,0,0,0-3.05-.53l.31-.15c-.77-.14-1.11.65-1.83.56l-.15-.45c-1.36-.21-2.68-.79-4.08-.62a.28.28,0,0,1,.31-.15c-.64-.11-2.43-.67-2.29-.06,0-.38-1.39-.25-2.15-.19l.15-.26a2.74,2.74,0,0,1-1.59.32c-.2-.07-.14-.25.12-.14-.66-.25-.57.18-1.38-.09l.33-.13a1.31,1.31,0,0,0-1.07.12c-.46,0-1.33-.27-1.39-.53a1,1,0,0,1-.94.14c0-.1.12-.13.2-.15-1.15-.37-1.8,0-2.57-.34a.21.21,0,0,0-.11-.18,16.19,16.19,0,0,1,1.61.28c0-.25-.71-.41-.06-.67a6.06,6.06,0,0,1-2.45.13.39.39,0,0,1-.08-.1l.08,0a1.08,1.08,0,0,0-.47,0,3.63,3.63,0,0,0-.6-.17c-.06-.22-.85-.24-1.23-.31,0,.29-.49.17-.06.47-.06,0,.07,0,.32,0h.17l0,0,.94.12a1.23,1.23,0,0,1-1,0c-.22.15-.46.3-.59.37-.46-.46-1.42-.82-1.53-1.08-1.17,0-2.72-.3-3.52.12-.34,0-.36-.21-.47-.31a2.12,2.12,0,0,0,.54,0c-.68,0-1.95-.23-2.16.11-.8-.29.52-.27-.63-.37l.17-.09c-2.14-.91-3.75.4-6.11-.71.16.07.24.11.27.17-2.77-.74-5.85-.52-8.55-1.45-.78-.22-.9,0-1.4.11l-.13-.32-.88.22c-1.2.09-1.91-1-3.46-.76l.16.23c-.53-.11-1.7-.12-1.58-.34a.32.32,0,0,1-.4.05v-.16l-1.34.08c-1-.25.24-.59-1.23-.84-.56,0-1.63.24-1.44.37s.56.18.55.34H.22c-.16.44-.61.86.57,1.36l.9-.16.25.26-.73-.09c.38.27.67.12,1,0a.56.56,0,0,0,.32.3l.91-.32c.07.19-.43.3.12.48.42-.15-.32-.46.35-.5.38.27.24.42.75.31.05.13-.07.19-.26.22.45-.08,1.14.1,1.4-.11.39.32,1.46.14,1.35.57a2.92,2.92,0,0,1,1.2-.2c-.79.42,1.47.24,1.2.78.6-.4,2,.07,2.94-.06-.06,0-.17.09-.25.06a4.16,4.16,0,0,1,1,.41c.12-.37,1-.34,1.44-.52.6.47-.46.4-.31.79,0-.32,1.18-.15,1-.45.46.31.41.18.62.54.16-.48.47,0,.93-.26.69.35.12.48.93.45C18.18,55.53,17.45,55.6,17.45,55.6Zm19,1.92h0l-.39,0Zm1.58.23-.69-.11c0-.1,0-.19.2-.17C37.39,57.53,37.75,57.64,38,57.75Zm-3.06-2.42c.25,0,.33.07.36.13a2.72,2.72,0,0,0-.45,0l0,0A.3.3,0,0,1,34.92,55.33Z"/><path class="cls-2" d="M34.41,55.63h-.1l.14.09.1-.08Z"/><path class="cls-2" d="M176.43,84.46h0a.17.17,0,0,1,.06.06A.13.13,0,0,1,176.43,84.46Z"/><polygon class="cls-2" points="59.71 61.64 59.72 61.57 59.57 61.61 59.71 61.64"/><path class="cls-2" d="M184.77,87.47a.18.18,0,0,0,.1.09S184.83,87.51,184.77,87.47Z"/><path class="cls-2" d="M188.51,88.26l.51.2C188.8,88.36,188.64,88.31,188.51,88.26Z"/><path class="cls-2" d="M191.38,88.91a.38.38,0,0,0,.07-.11h0Z"/><path class="cls-2" d="M146.12,78.05,146,78C145.74,78,145.92,78.05,146.12,78.05Z"/><path class="cls-2" d="M159.7,80.74a3.69,3.69,0,0,1-.47,0C159.47,80.84,159.65,80.89,159.7,80.74Z"/><polygon class="cls-2" points="131 74.94 131.01 74.93 130.91 74.91 131 74.94"/><path class="cls-2" d="M158.61,80.59a1.43,1.43,0,0,0,.62.16A2.57,2.57,0,0,0,158.61,80.59Z"/><path class="cls-2" d="M204,90.78l.14,0a.08.08,0,0,1,0,0Z"/><path class="cls-2" d="M204.11,90.76h.16C204.2,90.74,204.14,90.73,204.11,90.76Z"/><path class="cls-2" d="M204.61,90.72l-.34,0C204.39,90.76,204.53,90.79,204.61,90.72Z"/><path class="cls-2" d="M200.12,90.17l-.06.1A.14.14,0,0,0,200.12,90.17Z"/><path class="cls-2" d="M198.94,90.05a3.87,3.87,0,0,0,1.07.29l.05-.07C199.86,90.4,199.23,89.92,198.94,90.05Z"/><path class="cls-2" d="M194.26,88.12l1,.22c-.16-.13-.36-.31.09-.27C194.13,87.57,195.53,88.35,194.26,88.12Z"/><path class="cls-2" d="M191.27,87.48c.53,0,0-.16.06-.21C191,87.31,190.9,87.32,191.27,87.48Z"/><path class="cls-2" d="M169.85,82.41l.12-.23C169.57,82.1,169.94,82.27,169.85,82.41Z"/><polygon class="cls-2" points="165.43 82.55 165.77 82.81 166.01 82.64 165.43 82.55"/><polygon class="cls-2" points="163.5 80.14 163.68 80.15 163 80.06 163.5 80.14"/><path class="cls-2" d="M127.32,71.63l.06.33C127.66,72,127.79,71.63,127.32,71.63Z"/><path class="cls-2" d="M111.55,68.71a.89.89,0,0,0-.86-.27A5.94,5.94,0,0,0,111.55,68.71Z"/><polygon class="cls-2" points="64.31 59.81 64.64 59.76 64.03 59.75 64.31 59.81"/></g></g></svg>