<svg xmlns="http://www.w3.org/2000/svg" viewBox="0 0 152.91 33.61"><defs><style>.cls-1{fill:#e08080;}</style></defs><g id="Layer_2" data-name="Layer 2"><g id="Layer_1-2" data-name="Layer 1"><path d="M9.8,13.4c.76-.33,1.53.43,2.29,2.26.46,1.09,2,4.52,4.45,10.24a1,1,0,0,1-.62,1.39c-.59.25-1.06,0-1.41-.85l-2.25-5.19-.62.26C8.89,22.9,7.33,23.75,6.91,24l-1.48.73c1,1.79,1.88,3.44,2.58,4.91a1.11,1.11,0,0,1-.09,1.29l-.56.28c-.48.22-1-.14-1.47-1.1l-.06-.12C3.51,25.78,2.34,23.7,0,19.55a1.2,1.2,0,0,1,.29-1l.63-.31c.62-.31,1.65,1,3.09,3.94l.44.78c.89-.44,1.34-.65,2.24-1.08,3.24-1.53,4.8-2.42,4.62-2.84A36.21,36.21,0,0,0,9,14.69,1.32,1.32,0,0,1,9.8,13.4Z"/><path d="M23.26,8.94c.72,0,1.11.05,1.18.24l.23.72c-.05.45-.37.78-1,1l-.5.17q-2.49.84-5.36,2c.85,2.57,1.43,3.8,1.72,3.69,2.54-.95,3.82-1.4,6.39-2.24a1.2,1.2,0,0,1,1.33.2l.23.73a1.46,1.46,0,0,1-1.05,1.13c-.1,0-.53.14-1.3.33-1,.32-1.43.49-2.38.83a28.19,28.19,0,0,0-2.62,1.12l0,.13c.94,2.51,1.63,3.65,2,3.54s1.1-.25,1.58-.42c1.42-.51,2.13-.76,3.55-1.23a11,11,0,0,1,1.16-.46,1,1,0,0,1,1.16.47c.57.87-.42,1.78-2.88,2.65a34,34,0,0,1-4.38,1.27,2,2,0,0,1-2.24-.73,101.29,101.29,0,0,1-4.57-9.94,4.25,4.25,0,0,1-.21-.54,6,6,0,0,0-.24-.59c-.19-.5.25-1,1.32-1.48,2.09-.83,3.14-1.22,5.25-2C22.34,9.29,22.65,9.17,23.26,8.94Z"/><path d="M30,6.53a1.06,1.06,0,0,1,1.21.82l3.05,10.86,2.39-.51c2.89-.85,4.44-1.24,4.62-1.29a1.11,1.11,0,0,1,1.25.89c.16.64-.62,1.23-2.28,1.74l-1.94.53c-.67.21-1.57.41-2.59.69-2,.55-3.15.35-3.38-.64-.45-1.95-1.11-3.6-1.41-4.63l-2.12-7C28.61,7.24,29.08,6.66,30,6.53Z"/><path d="M43.43,3.25a1.05,1.05,0,0,1,1.14.92c.87,4.42,1.3,6.64,2.16,11.07l2.42-.31c2.93-.62,4.5-.88,4.68-.91A1.1,1.1,0,0,1,55,15c.11.66-.71,1.18-2.4,1.56l-2,.36c-.68.16-1.59.29-2.62.48-2.07.37-3.16.09-3.31-.91-.29-2-.81-3.69-1-4.73-.62-2.88-.92-4.32-1.54-7.2C42.05,3.84,42.56,3.31,43.43,3.25Z"/><path d="M62.54,1.35c3.41-.29,5.83,1.1,7.14,4,.11.85.17,1.27.27,2.11s0,1.26-.08,2.09c-.37,3.55-2.13,5.39-5.3,5.64-3.34.27-5.68-.58-7.12-2.67a9.38,9.38,0,0,1-.82-2.34,11.15,11.15,0,0,1,.64-4.93c-.27,0-.53-.25-.63-.73-.16-.77,1.58-1.95,5.15-3.14Zm-3.71,8,.11,1c.25,2.23,1.9,3.14,5,2.89l.84-.07C66.34,13,67.35,12,67.82,10c0-.72,0-1.07,0-1.79-.06-.51-.1-.76-.16-1.27-.48-2.55-2.14-3.86-4.56-3.55-2.18.29-3.35,1.07-3.27,1.92A6.31,6.31,0,0,0,58.83,9.32Z"/><path d="M80.28,0l2,.05c1,0,1.48.39,1.45,1.05v.14a1.44,1.44,0,0,1-1.34.67h-.19c0,.49.08,1.52.07,2.88,0,3.82-.36,6.63-.39,7.87h.29l.43,0h.14c.47.1.74.3.83.59s0,.35,0,.58a1.32,1.32,0,0,1-1.25.68c-1.1,0-1.65,0-2.74-.07a1.27,1.27,0,0,1-1.19-.73v-.58a1,1,0,0,1,1.07-.55h.29a26.94,26.94,0,0,0,.41-4.73c0-1.54,0-2.32.08-3.86,0-.48,0-1.2-.14-2.16h-.66A1.4,1.4,0,0,1,78.62,1C78.53.44,79.18,0,80.28,0Z"/><path d="M87.45,1c4.21.25,6.31.45,10.5,1A1.13,1.13,0,0,1,99,2.64l-.08.55c-.3.46-.87.63-1.71.53-1.57-.18-2.35-.26-3.93-.41q-.08,2.25-.18,3.24l-.5,4.23c-.15,2.87-.55,4.42-1.21,4.65a1,1,0,0,1-.61.11c-.62-.06-.84-.78-.75-1.95a11.41,11.41,0,0,1,.31-1.66c.3-3,.45-4.43.76-7.39,0-.58,0-.87,0-1.45-1.37-.11-2-.16-3.42-.25-1.08-.06-1.74-.71-1.56-1.25A1.37,1.37,0,0,1,87.45,1Z"/><path d="M103.24,1.68A1.76,1.76,0,0,1,105,3.12c0,.16,0,.25.07.41-1.68,1.76-2.7,2.68-3.11,2.71l-.46,0a1.23,1.23,0,0,1-.91-1,6.91,6.91,0,0,0,1.48-2.9A2.09,2.09,0,0,1,103.24,1.68Z"/><path d="M111.37,8.05a9.74,9.74,0,0,1,1.41.38c1.35.76,1.78,1.45,1.32,2-.21.45-.61.6-1.22.46a5.63,5.63,0,0,1-1-.56l-.87-.37a2.31,2.31,0,0,0-2.17.23,1.59,1.59,0,0,0-.23,1.2c.48.78,1.61,1.46,3.38,2.1a2.82,2.82,0,0,1,.48.25,2.32,2.32,0,0,1,1,2.17l-.27.9c-.78,1.82-2.31,2.43-4.62,1.91l-1.33-.37c-1.33-.62-2.22-1.27-2.3-1.74a1,1,0,0,1,1.4-1.16,13.21,13.21,0,0,1,1.64,1,2.39,2.39,0,0,0,.92.43c1.38.34,2.4-.21,2.4-1.12,0-.34-.65-.8-1.8-1.23a4,4,0,0,1-.58-.26c-1.66-1-2.51-1.94-2.45-2.94a6.86,6.86,0,0,1,.22-1.44C107.46,8.21,109,7.55,111.37,8.05Z"/><path class="cls-1" d="M136.81,10.89a1.08,1.08,0,0,1,.64,1.52L133,24a1.33,1.33,0,0,1-1.25.89l-.45-.17a1.27,1.27,0,0,1-.43-1.24,13,13,0,0,1,.71-1.81c.45-1.1,1.38-3.63,2.69-7.55a37,37,0,0,0-5.17,2.9,1.51,1.51,0,0,1-.72-.07l-.5-.17c-.44-.14-1-1.67-1.87-4.6l-.23-.09c-.34,1.11-.5,1.67-.84,2.79-.46,1.7-.83,3-1.06,3.82-.52,1.89-1.1,2.84-1.8,2.76l-.56-.19a1,1,0,0,1-.5-1.22,14.8,14.8,0,0,1,.77-2.33c1.07-3.67,1.61-5.5,2.68-9.16.21-.72.72-1,1.55-.71.25.08.73.76,1.4,2.07a13.09,13.09,0,0,1,1.42,4.51l.17.05C133.52,11.79,136.26,10.66,136.81,10.89Z"/><path class="cls-1" d="M142.13,18.64a6.37,6.37,0,0,1,1.62.7c2,1.51,2.75,2.91,2.19,4.11-.69,1.46-2.06,1.7-4.15.78l-.62-.28a8.27,8.27,0,0,1-2.73-1.64,2.46,2.46,0,0,0-.62,1.09c-.15,1.14.64,2.18,2.37,3.18a12,12,0,0,0,1.44.53l.14.06a1.45,1.45,0,0,1,.92,1.24.7.7,0,0,1-.25.54,1.78,1.78,0,0,1-1.78.05,9.75,9.75,0,0,1-1.41-.65c-3.09-1.77-4.22-3.75-3.29-6.09l.11-.28C137.19,19.16,139.21,18,142.13,18.64Zm-2.37,2.21c-.07.22.42.56,1.46,1l1.69.74c.51.19.83.14,1-.14,0-.74-.41-1.35-1.34-1.82a3.12,3.12,0,0,0-.78-.24A2.33,2.33,0,0,0,139.76,20.85Z"/><path d="M145.41,33.35a1.29,1.29,0,0,1-.61-1.75,1.41,1.41,0,0,1,2-.54c.66.36.84,1.17.41,2.09C147,33.65,146.16,33.77,145.41,33.35Zm1.91-3.85a1.25,1.25,0,0,1-.3-1.45c.3-.58.45-.87.76-1.45a40.16,40.16,0,0,0,3.09-6.66c.57-.55,1.1-.7,1.56-.46.78.42.57,1.58-.35,3.38-.7,1.36-1.45,2.92-2.33,4.5L148.83,29C148.35,29.62,147.85,29.77,147.32,29.5Z"/></g></g></svg>